<svg width="21" height="20" viewBox="0 0 21 20" fill="none" xmlns="http://www.w3.org/2000/svg">
<path d="M3.21119 19.93C2.49963 19.93 1.83474 19.6994 1.35648 19.2713C0.749909 18.7335 0.458288 17.9212 0.563272 17.0431L0.994871 13.4869C1.07652 12.8173 1.50812 11.9283 2.00971 11.4453L11.5866 1.90711C13.9778 -0.474712 16.4741 -0.540568 19.0054 1.70954C21.5367 3.95964 21.6066 6.30854 19.2154 8.69036L9.63853 18.2286C9.1486 18.7225 8.23873 19.1835 7.52718 19.2933L3.7711 19.8969C3.5728 19.9079 3.39783 19.93 3.21119 19.93ZM15.331 1.69856C14.4328 1.69856 13.6512 2.22542 12.858 3.0157L3.28118 12.565C3.04788 12.7955 2.77959 13.3443 2.73293 13.6626L2.30133 17.2188C2.25467 17.581 2.34799 17.8773 2.55796 18.0639C2.76793 18.2505 3.08288 18.3164 3.46782 18.2615L7.22389 17.6579C7.56217 17.603 8.12208 17.3175 8.35538 17.087L17.9322 7.54884C19.3787 6.09999 19.9036 4.7609 17.7922 2.89496C16.8591 2.0498 16.0542 1.69856 15.331 1.69856Z" fill="white"/>
<path d="M16.5138 9.92476C16.4932 9.92476 16.4622 9.92476 16.4415 9.92476C13.2176 9.63756 10.6241 7.44185 10.1281 4.56977C10.0661 4.18991 10.3554 3.83785 10.7791 3.773C11.2027 3.71741 11.5954 3.97682 11.6677 4.35668C12.0604 6.59876 14.0856 8.322 16.6068 8.54436C17.0305 8.58142 17.3405 8.92422 17.2991 9.30403C17.2475 9.65609 16.9065 9.92476 16.5138 9.92476Z" fill="white"/>
</svg>
