<svg width="24" height="24" viewBox="0 0 24 24" fill="none" xmlns="http://www.w3.org/2000/svg">
<path d="M12.0005 20.625C11.9363 20.625 11.8733 20.6086 11.8173 20.5772C10.1198 19.5828 8.52677 18.4202 7.06213 17.1069C3.86932 14.2334 2.25049 11.3797 2.25049 8.625C2.25075 7.47737 2.62697 6.36143 3.32158 5.44788C4.01619 4.53434 4.99094 3.87349 6.09673 3.56644C7.20252 3.25939 8.37845 3.32305 9.44464 3.74766C10.5108 4.17228 11.4085 4.93448 12.0005 5.91767C12.5924 4.93448 13.4902 4.17228 14.5563 3.74766C15.6225 3.32305 16.7985 3.25939 17.9042 3.56644C19.01 3.87349 19.9848 4.53434 20.6794 5.44788C21.374 6.36143 21.7502 7.47737 21.7505 8.625C21.7505 11.3797 20.1317 14.2334 16.9388 17.1069C15.4742 18.4202 13.8811 19.5828 12.1837 20.5772C12.1277 20.6086 12.0646 20.625 12.0005 20.625ZM7.50049 4.125C6.30743 4.12634 5.16361 4.60088 4.31999 5.4445C3.47636 6.28812 3.00183 7.43194 3.00049 8.625C3.00049 14.222 10.7045 19.0445 12.0005 19.8158C13.2965 19.0445 21.0005 14.222 21.0005 8.625C21.0003 7.58491 20.6399 6.57698 19.9805 5.77259C19.3212 4.9682 18.4036 4.41699 17.3838 4.21269C16.3639 4.00838 15.3048 4.16359 14.3865 4.65192C13.4682 5.14025 12.7473 5.93156 12.3465 6.89131C12.318 6.95956 12.2699 7.01785 12.2083 7.05885C12.1468 7.09985 12.0745 7.12173 12.0005 7.12173C11.9265 7.12173 11.8542 7.09985 11.7926 7.05885C11.7311 7.01785 11.683 6.95956 11.6545 6.89131C11.3134 6.07105 10.7366 5.3704 9.99715 4.87799C9.25772 4.38558 8.38887 4.12353 7.50049 4.125Z" fill="black"/>
</svg>
